<?xml version="1.0" encoding="UTF-8"?>
<svg width="461px" height="460px" viewBox="0 0 461 460" version="1.1" xmlns="http://www.w3.org/2000/svg" xmlns:xlink="http://www.w3.org/1999/xlink">
    <title>inertia-logo</title>
    <defs>
        <linearGradient x1="-5.20417043e-15%" y1="50%" x2="100%" y2="50%" id="linearGradient-1">
            <stop stop-color="#9553E9" offset="0%"></stop>
            <stop stop-color="#7270EC" offset="100%"></stop>
        </linearGradient>
    </defs>
    <g id="Page-1" stroke="none" stroke-width="1" fill="none" fill-rule="evenodd">
        <g id="inertia-logo" fill-rule="nonzero">
            <path d="M94.8637524,0 L366.136248,7.25467311e-15 C399.122441,-4.215174e-15 411.084032,3.43454761 423.143291,9.88391004 C435.20255,16.3332725 444.666728,25.7974497 451.11609,37.856709 C457.565452,49.9159682 461,61.877559 461,94.8637524 L461,365.136248 C461,398.122441 457.565452,410.084032 451.11609,422.143291 C444.666728,434.20255 435.20255,443.666728 423.143291,450.11609 C411.084032,456.565452 399.122441,460 366.136248,460 L94.8637524,460 C61.877559,460 49.9159682,456.565452 37.856709,450.11609 C25.7974497,443.666728 16.3332725,434.20255 9.88391004,422.143291 C3.43454761,410.084032 0,398.122441 0,365.136248 L0,94.8637524 C0,61.877559 3.43454761,49.9159682 9.88391004,37.856709 C16.3332725,25.7974497 25.7974497,16.3332725 37.856709,9.88391004 C49.9159682,3.43454761 61.877559,0 94.8637524,0 Z" id="Rectangle" fill="url(#linearGradient-1)"></path>
            <polygon id="Path" fill="#FFFFFF" points="157.154286 135 59 135 153.845714 230 59 325 157.154286 325 252 230"></polygon>
            <polygon id="Path" fill="#FFFFFF" points="305.154286 135 207 135 301.845714 230 207 325 305.154286 325 400 230"></polygon>
        </g>
    </g>
</svg>